<svg width="181" height="203" viewBox="0 0 181 203" fill="none" xmlns="http://www.w3.org/2000/svg">
<path d="M129.752 0.594813C127.294 1.38778 124.836 3.56845 123.606 6.10595C122.734 7.92977 122.536 9.00028 122.338 12.8065L122.1 17.3661L117.897 18.0005C110.324 19.1503 100.055 22.1239 93.7115 25.0183C92.3238 25.6526 90.8965 26.1681 90.5396 26.1681C90.1828 26.1681 88.3193 25.4544 86.3369 24.6218C78.8434 21.4102 68.733 18.6745 59.5742 17.3661C54.6578 16.6921 39.1156 16.6921 34.3975 17.3661C21.71 19.1899 6.16777 24.027 2.75801 27.2386C0.775586 29.102 0.498047 30.3311 0.498047 36.6749C0.498047 41.9085 0.577344 42.5032 1.29102 43.2169C2.28223 44.2081 4.10605 44.2477 5.29551 43.2565C6.20742 42.5429 6.24707 42.186 6.44531 36.9921L6.64355 31.5206L8.22949 30.7673C14.4146 27.8333 24.6836 24.8597 33.208 23.5513C40.424 22.4411 54.6975 22.5204 61.9135 23.7495C68.852 24.939 75.8697 26.8817 82.2135 29.3796L87.3281 31.4017V63.279V95.1563H85.7422C84.9096 95.1563 82.4117 95.5132 80.2707 95.9097C61.8738 99.478 46.4506 112.483 39.8689 130.007C38.4812 133.774 37.0539 139.959 36.7367 143.686L36.4988 146.977L32.8512 147.453C27.1418 148.206 20.5998 149.752 14.2164 151.893C10.9652 153.003 7.95195 153.836 7.47617 153.757L6.64355 153.638L6.44531 103.76L6.24707 53.8427L5.13691 52.8911C3.78887 51.7413 2.9166 51.7017 1.52891 52.7722L0.498047 53.5651V103.919C0.498047 152.528 0.537695 154.312 1.25137 155.739C3.19414 159.545 7.43652 160.814 12.0754 158.951C15.3662 157.642 19.5293 156.334 23.732 155.263C27.9744 154.193 36.0627 152.805 36.3402 153.083C36.4592 153.202 36.816 155.025 37.1332 157.206C38.1244 163.946 40.4637 170.449 44.151 176.674C45.618 179.132 46.3713 180.044 47.1643 180.242C48.6709 180.638 50.1775 179.964 50.8119 178.616C51.3273 177.546 51.2877 177.308 50.4551 175.841C44.3889 165.096 42.5254 158.792 42.5254 148.88C42.5254 135.756 47.2039 124.457 56.5609 115.139C66.0369 105.624 77.2178 100.945 90.5 100.945C103.941 100.945 115.597 105.901 124.915 115.575C132.052 122.91 136.215 131.157 137.88 141.149C138.871 146.858 138.554 155.343 137.166 160.616C131.338 182.898 111.157 197.965 88.5176 196.894C78.5658 196.458 70.3189 193.564 62.1117 187.696C59.6139 185.912 58.2262 185.158 57.3539 185.158C54.8561 185.158 53.7855 188.172 55.6094 190.114C57.235 191.859 63.4201 195.863 67.2264 197.648C75.4732 201.493 81.2223 202.762 90.5 202.762C102.157 202.762 111.038 200.106 120.672 193.683C132.845 185.594 141.488 171.995 143.867 157.285C144.422 153.836 144.66 153.043 145.215 153.043C148.704 153.043 162.462 156.374 167.933 158.554C173.603 160.814 177.647 159.863 179.749 155.739C180.423 154.431 180.502 153.321 180.502 145.351V136.43L179.471 135.637C177.885 134.369 176.141 134.607 175.229 136.153C174.912 136.708 174.674 139.8 174.555 145.312C174.356 153.36 174.317 153.638 173.524 153.757C173.088 153.836 170.035 153.003 166.784 151.893C160.321 149.752 153.739 148.166 148.149 147.453L144.501 146.977L144.263 143.686C143.946 139.959 142.519 133.774 141.131 130.007C135.382 114.782 122.655 102.61 107.113 97.5352C103.386 96.3061 97.5971 95.1563 95.1785 95.1563H93.6719V63.279V31.4413L98.7469 29.4192C109.928 24.9786 122.139 22.5997 134.034 22.5997H138.078V33.7806C138.118 45.5958 138.118 45.7544 139.981 46.7456C141.25 47.4196 142.083 47.0628 146.999 43.6134C149.418 41.9481 151.598 40.4415 151.836 40.2829C152.153 40.1243 154.175 41.2741 156.911 43.1772C162.541 47.1024 162.858 47.3007 163.969 46.9438C166.189 46.2698 166.229 46.1509 166.229 36.9921C166.229 29.5778 166.308 28.547 166.863 28.547C167.577 28.547 173.326 30.8466 174.079 31.4413C174.436 31.7188 174.555 41.512 174.555 77.9886C174.555 117.716 174.634 124.298 175.149 125.25C176.101 127.113 178.242 127.47 179.63 125.963L180.502 125.051V78.0282C180.502 45.7544 180.383 30.6087 180.066 29.8554C179.114 27.2782 177.013 25.8509 170.392 23.353L166.427 21.8464L166.229 14.5907C165.991 6.81962 165.872 6.30419 163.612 3.60809C163.017 2.89442 161.629 1.86356 160.519 1.26884L158.497 0.198328L145.017 0.119032C134.312 0.0397347 131.179 0.15868 129.752 0.594813ZM136.651 7.49364C137.84 8.68309 137.88 8.88134 137.999 12.6876L138.157 16.6524H133.122H128.047L128.245 12.9651C128.404 10.269 128.642 8.96063 129.197 8.16766C130.822 5.66981 134.47 5.35263 136.651 7.49364ZM157.704 6.58173C160.281 7.81083 160.321 8.08837 160.202 23.9081L160.083 38.0626L156.554 35.6837C154.612 34.3753 152.669 33.3048 152.233 33.3048C151.796 33.3048 149.854 34.3753 147.951 35.6837C146.047 36.9921 144.382 38.0626 144.263 38.0626C144.144 38.0626 144.025 31.5206 144.025 23.472C143.986 12.3704 143.867 8.56415 143.47 7.41434L142.915 5.94735H149.655C154.929 5.94735 156.673 6.0663 157.704 6.58173Z" fill="white"/>
<path d="M36.1819 43.8116C28.2126 44.6839 21.1948 46.2302 19.8864 47.4196C18.7763 48.4108 18.8952 50.3933 20.1243 51.5431L21.1155 52.4946L26.3888 51.4241C35.5079 49.6003 37.6489 49.4021 46.887 49.4021C56.1647 49.3624 60.8829 49.8778 68.2179 51.5827C72.3413 52.5343 72.6981 52.5343 73.8083 51.5034C75.0374 50.3536 74.8392 48.1333 73.4118 47.1024C72.8567 46.6663 70.3985 45.913 67.6628 45.3976C57.5921 43.3358 45.8958 42.7411 36.1819 43.8116Z" fill="white"/>
<path d="M39.552 62.5257C32.4152 63.0015 21.2344 65.2218 19.926 66.4113C18.2211 67.9575 19.4105 71.3673 21.6705 71.3673C22.2256 71.3673 24.1287 71.0105 25.9525 70.5743C32.9307 68.9488 38.0453 68.4333 46.8869 68.4333C55.7285 68.4333 60.8432 68.9488 67.8213 70.5743C69.6451 71.0105 71.5482 71.3673 72.1033 71.3673C73.491 71.3673 74.6408 70.0193 74.6408 68.473C74.6408 66.0544 73.0549 65.3407 64.3322 63.8341C56.3629 62.4464 47.442 61.9706 39.552 62.5257Z" fill="white"/>
<path d="M126.779 62.5257C119.642 63.0015 108.461 65.2218 107.153 66.4113C105.448 67.9575 106.637 71.3673 108.897 71.3673C109.452 71.3673 111.355 71.0105 113.179 70.5743C120.157 68.9488 125.272 68.4333 134.113 68.4333C142.955 68.4333 148.07 68.9488 155.048 70.5743C156.872 71.0105 158.775 71.3673 159.251 71.3673C160.599 71.3673 161.867 69.94 161.867 68.4333C161.867 66.0544 160.281 65.3407 151.559 63.8341C143.589 62.4464 134.669 61.9706 126.779 62.5257Z" fill="white"/>
<path d="M38.4415 81.6759C30.3135 82.4292 21.1944 84.2927 19.886 85.4822C18.8948 86.3941 18.8948 88.5747 19.9256 89.6056C20.9168 90.5968 21.8288 90.5968 25.9522 89.6452C32.6528 88.0593 38.4415 87.4646 46.8866 87.4646C55.3317 87.4646 61.1204 88.0593 67.8209 89.6452C69.6051 90.0417 71.5479 90.3986 72.0633 90.3986C74.4819 90.3986 75.592 86.8302 73.6493 85.3236C72.6184 84.4909 66.9883 83.2222 60.367 82.2706C55.1334 81.5173 43.5561 81.2398 38.4415 81.6759Z" fill="white"/>
<path d="M125.668 81.6759C117.54 82.4292 108.421 84.2927 107.113 85.4822C106.121 86.3941 106.121 88.5747 107.152 89.6056C108.143 90.5968 109.055 90.5968 113.179 89.6452C119.879 88.0593 125.668 87.4646 134.113 87.4646C142.558 87.4646 148.347 88.0593 155.048 89.6452C156.832 90.0417 158.774 90.3986 159.29 90.3986C161.708 90.3986 162.819 86.8302 160.876 85.3236C159.845 84.4909 154.215 83.2222 147.594 82.2706C142.36 81.5173 130.783 81.2398 125.668 81.6759Z" fill="white"/>
<path d="M86.892 109.073C82.2135 109.47 77.9711 110.659 73.2529 112.959C59.4553 119.699 50.4947 133.774 50.4551 148.721C50.4551 165.255 60.843 180.361 76.3455 186.348C81.3809 188.33 84.5527 188.846 90.6982 188.846C95.4164 188.846 96.8438 188.687 100.214 187.775C123.567 181.63 136.413 156.81 127.809 134.607C125.311 128.144 120.078 121.245 114.368 116.923C108.937 112.84 101.046 109.668 95.0992 109.192C93.5529 109.073 91.848 108.954 91.293 108.875C90.7379 108.835 88.7555 108.914 86.892 109.073ZM87.3281 125.21V135.479L83.0857 135.717C77.8918 136.034 71.2705 137.184 66.473 138.611C61.7152 140.078 59.9707 140.237 58.8209 139.285L57.9486 138.571L58.7416 136.351C61.4377 129.175 67.5832 122.474 74.9578 118.628C77.9711 117.042 84.3148 115.06 86.4559 114.981H87.3281V125.21ZM98.9451 115.932C108.54 118.39 117.223 125.487 121.228 134.21C123.17 138.413 123.21 138.611 122.06 139.404C120.791 140.197 119.245 140.038 114.527 138.611C109.729 137.184 103.069 136.034 97.9539 135.717L93.6719 135.479V125.21C93.6719 113.355 93.0375 114.426 98.9451 115.932ZM96.4076 141.545C99.1434 141.743 101.681 142.021 102.077 142.179C103.306 142.576 104.773 145.55 104.773 147.73C104.773 149.832 103.822 156.334 103.346 157.603C102.791 159.149 101.126 161.012 99.5002 161.885C97.9539 162.678 97.3195 162.757 90.5 162.757C83.6805 162.757 83.0461 162.678 81.4998 161.885C79.8742 161.012 78.209 159.149 77.6539 157.603C77.1781 156.334 76.2266 149.832 76.2266 147.73C76.2266 145.312 77.7332 142.457 79.2398 142.1C80.2707 141.823 86.6541 141.307 89.707 141.228C90.6982 141.188 93.7115 141.347 96.4076 141.545ZM70.3982 145.906C70.2793 147.215 70.3982 150.188 70.6758 152.448C70.9533 154.748 71.1119 156.691 71.0326 156.77C70.9533 156.849 67.7418 156.453 63.8959 155.898L56.8781 154.907L56.6402 153.479C56.5213 152.686 56.4023 150.466 56.4023 148.523C56.4023 145.074 56.4023 145.034 57.3143 145.312C59.9311 146.144 62.5479 145.986 66.5127 144.757C68.6934 144.122 70.5172 143.567 70.5568 143.567C70.6361 143.528 70.5568 144.598 70.3982 145.906ZM114.884 144.915C118.413 145.986 121.188 146.105 123.765 145.272L124.717 144.995L124.518 149.792C124.439 152.448 124.28 154.669 124.162 154.788C123.924 155.026 110.166 156.929 109.967 156.77C109.888 156.691 110.047 154.748 110.324 152.448C110.602 150.188 110.721 147.254 110.602 145.946C110.404 144.162 110.443 143.607 110.84 143.726C111.078 143.805 112.901 144.36 114.884 144.915ZM67.1074 162.361L74.0063 163.312L75.6715 165.017C77.2971 166.722 77.3367 166.801 78.7641 173.779C79.5967 177.665 80.1914 180.995 80.1121 181.194C80.0328 181.392 78.6451 180.995 77.0195 180.282C69.6846 177.07 63.5391 171.281 60.0104 164.264C59.3363 162.916 58.7813 161.687 58.7813 161.568C58.7813 161.211 59.8914 161.33 67.1074 162.361ZM122.219 161.647C122.219 161.845 121.505 163.272 120.633 164.898C117.659 170.33 114.448 173.898 109.333 177.348C106.558 179.251 101.046 181.749 100.888 181.194C100.809 180.995 101.403 177.665 102.236 173.779C103.663 166.762 103.703 166.722 105.329 165.017L106.994 163.312L113.338 162.4C120.276 161.369 122.219 161.211 122.219 161.647ZM97.1213 169.299C97.042 169.616 96.368 172.788 95.6147 176.317C94.108 183.493 94.3855 183.176 90.5 183.176C86.6145 183.176 86.892 183.493 85.3854 176.317C84.632 172.788 83.958 169.616 83.8787 169.299C83.7598 168.784 84.6717 168.704 90.5 168.704C96.3283 168.704 97.2402 168.784 97.1213 169.299Z" fill="white"/>
</svg>
